<mxfile host="app.diagrams.net" modified="2020-06-07T15:02:33.058Z" agent="5.0 (Windows NT 10.0; Win64; x64) AppleWebKit/537.36 (KHTML, like Gecko) Chrome/83.0.4103.61 Safari/537.36" etag="eSrf29boON18HjU-miWZ" version="13.1.3" type="github">
  <diagram name="Page-1" id="13e1069c-82ec-6db2-03f1-153e76fe0fe0">
    <mxGraphModel dx="868" dy="482" grid="1" gridSize="10" guides="1" tooltips="1" connect="1" arrows="1" fold="1" page="1" pageScale="1" pageWidth="1100" pageHeight="850" background="#ffffff" math="0" shadow="0">
      <root>
        <mxCell id="0" />
        <mxCell id="1" parent="0" />
        <mxCell id="PVZVwCT5q8L5BoTcehdO-79" value="" style="rounded=0;whiteSpace=wrap;html=1;dashed=1;" parent="1" vertex="1">
          <mxGeometry x="360" y="1400" width="320" height="200" as="geometry" />
        </mxCell>
        <mxCell id="PVZVwCT5q8L5BoTcehdO-46" value="&lt;font style=&quot;font-size: 12px&quot; face=&quot;Verdana&quot;&gt;{QuoteDetails}&lt;/font&gt;" style="html=1;verticalAlign=bottom;endArrow=open;dashed=1;endSize=8;" parent="1" edge="1">
          <mxGeometry relative="1" as="geometry">
            <mxPoint x="290" y="590" as="sourcePoint" />
            <mxPoint x="153" y="590" as="targetPoint" />
          </mxGeometry>
        </mxCell>
        <mxCell id="7baba1c4bc27f4b0-2" value="Server" style="shape=umlLifeline;perimeter=lifelinePerimeter;whiteSpace=wrap;html=1;container=1;collapsible=0;recursiveResize=0;outlineConnect=0;rounded=1;shadow=0;comic=0;labelBackgroundColor=none;strokeWidth=1;fontFamily=Verdana;fontSize=12;align=center;fillColor=#d5e8d4;strokeColor=#82b366;" parent="1" vertex="1">
          <mxGeometry x="240" y="80" width="100" height="1200" as="geometry" />
        </mxCell>
        <mxCell id="7baba1c4bc27f4b0-10" value="" style="html=1;points=[];perimeter=orthogonalPerimeter;rounded=0;shadow=0;comic=0;labelBackgroundColor=none;strokeWidth=1;fontFamily=Verdana;fontSize=12;align=center;" parent="7baba1c4bc27f4b0-2" vertex="1">
          <mxGeometry x="45" y="201" width="10" height="65" as="geometry" />
        </mxCell>
        <mxCell id="PVZVwCT5q8L5BoTcehdO-42" value="" style="html=1;points=[];perimeter=orthogonalPerimeter;rounded=0;shadow=0;comic=0;labelBackgroundColor=none;strokeWidth=1;fontFamily=Verdana;fontSize=12;align=center;" parent="7baba1c4bc27f4b0-2" vertex="1">
          <mxGeometry x="44" y="319" width="10" height="191" as="geometry" />
        </mxCell>
        <mxCell id="PVZVwCT5q8L5BoTcehdO-59" value="" style="html=1;points=[];perimeter=orthogonalPerimeter;" parent="7baba1c4bc27f4b0-2" vertex="1">
          <mxGeometry x="45" y="651" width="10" height="199" as="geometry" />
        </mxCell>
        <mxCell id="7baba1c4bc27f4b0-3" value="Database" style="shape=umlLifeline;perimeter=lifelinePerimeter;whiteSpace=wrap;html=1;container=1;collapsible=0;recursiveResize=0;outlineConnect=0;rounded=1;shadow=0;comic=0;labelBackgroundColor=none;strokeWidth=1;fontFamily=Verdana;fontSize=12;align=center;fillColor=#d5e8d4;strokeColor=#82b366;" parent="1" vertex="1">
          <mxGeometry x="400" y="80" width="100" height="1200" as="geometry" />
        </mxCell>
        <mxCell id="7baba1c4bc27f4b0-13" value="" style="html=1;points=[];perimeter=orthogonalPerimeter;rounded=0;shadow=0;comic=0;labelBackgroundColor=none;strokeWidth=1;fontFamily=Verdana;fontSize=12;align=center;" parent="7baba1c4bc27f4b0-3" vertex="1">
          <mxGeometry x="45" y="221" width="10" height="25" as="geometry" />
        </mxCell>
        <mxCell id="7baba1c4bc27f4b0-4" value="Kotak" style="shape=umlLifeline;perimeter=lifelinePerimeter;whiteSpace=wrap;html=1;container=1;collapsible=0;recursiveResize=0;outlineConnect=0;rounded=1;shadow=0;comic=0;labelBackgroundColor=none;strokeWidth=1;fontFamily=Verdana;fontSize=12;align=center;fillColor=#fff2cc;strokeColor=#d6b656;" parent="1" vertex="1">
          <mxGeometry x="540" y="80" width="100" height="1200" as="geometry" />
        </mxCell>
        <mxCell id="PVZVwCT5q8L5BoTcehdO-47" value="" style="html=1;points=[];perimeter=orthogonalPerimeter;" parent="7baba1c4bc27f4b0-4" vertex="1">
          <mxGeometry x="45" y="420" width="10" height="30" as="geometry" />
        </mxCell>
        <mxCell id="PVZVwCT5q8L5BoTcehdO-70" value="" style="html=1;points=[];perimeter=orthogonalPerimeter;" parent="7baba1c4bc27f4b0-4" vertex="1">
          <mxGeometry x="45" y="1119" width="10" height="40" as="geometry" />
        </mxCell>
        <mxCell id="7baba1c4bc27f4b0-5" value="Payment Gateway" style="shape=umlLifeline;perimeter=lifelinePerimeter;whiteSpace=wrap;html=1;container=1;collapsible=0;recursiveResize=0;outlineConnect=0;rounded=1;shadow=0;comic=0;labelBackgroundColor=none;strokeWidth=1;fontFamily=Verdana;fontSize=12;align=center;fillColor=#fff2cc;strokeColor=#d6b656;" parent="1" vertex="1">
          <mxGeometry x="680" y="80" width="100" height="1200" as="geometry" />
        </mxCell>
        <mxCell id="7baba1c4bc27f4b0-8" value="Web UI" style="shape=umlLifeline;perimeter=lifelinePerimeter;whiteSpace=wrap;html=1;container=1;collapsible=0;recursiveResize=0;outlineConnect=0;rounded=1;shadow=0;comic=0;labelBackgroundColor=none;strokeWidth=1;fontFamily=Verdana;fontSize=12;align=center;fillColor=#d5e8d4;strokeColor=#82b366;" parent="1" vertex="1">
          <mxGeometry x="100" y="80" width="100" height="1200" as="geometry" />
        </mxCell>
        <mxCell id="7baba1c4bc27f4b0-9" value="" style="html=1;points=[];perimeter=orthogonalPerimeter;rounded=0;shadow=0;comic=0;labelBackgroundColor=none;strokeWidth=1;fontFamily=Verdana;fontSize=12;align=center;" parent="7baba1c4bc27f4b0-8" vertex="1">
          <mxGeometry x="45" y="100" width="10" height="1100" as="geometry" />
        </mxCell>
        <mxCell id="PVZVwCT5q8L5BoTcehdO-37" value="" style="html=1;points=[];perimeter=orthogonalPerimeter;" parent="7baba1c4bc27f4b0-8" vertex="1">
          <mxGeometry x="50" y="120" width="10" height="40" as="geometry" />
        </mxCell>
        <mxCell id="PVZVwCT5q8L5BoTcehdO-38" value="&lt;font style=&quot;font-size: 12px&quot; face=&quot;Verdana&quot;&gt;Fiill the form &amp;amp; Submit&lt;/font&gt;" style="edgeStyle=orthogonalEdgeStyle;html=1;align=left;spacingLeft=2;endArrow=block;rounded=0;entryX=1;entryY=0;" parent="7baba1c4bc27f4b0-8" target="PVZVwCT5q8L5BoTcehdO-37" edge="1">
          <mxGeometry relative="1" as="geometry">
            <mxPoint x="55" y="100" as="sourcePoint" />
            <Array as="points">
              <mxPoint x="80" y="100" />
            </Array>
          </mxGeometry>
        </mxCell>
        <mxCell id="PVZVwCT5q8L5BoTcehdO-60" value="" style="html=1;points=[];perimeter=orthogonalPerimeter;" parent="7baba1c4bc27f4b0-8" vertex="1">
          <mxGeometry x="50" y="580" width="10" height="40" as="geometry" />
        </mxCell>
        <mxCell id="PVZVwCT5q8L5BoTcehdO-61" value="&lt;font face=&quot;Verdana&quot; style=&quot;font-size: 12px&quot;&gt;User Accepts Kotak &amp;amp; Submits Proposal&lt;/font&gt;" style="edgeStyle=orthogonalEdgeStyle;html=1;align=left;spacingLeft=2;endArrow=block;rounded=0;entryX=1;entryY=0;" parent="7baba1c4bc27f4b0-8" target="PVZVwCT5q8L5BoTcehdO-60" edge="1">
          <mxGeometry relative="1" as="geometry">
            <mxPoint x="55" y="560" as="sourcePoint" />
            <Array as="points">
              <mxPoint x="80" y="560" />
            </Array>
          </mxGeometry>
        </mxCell>
        <mxCell id="PVZVwCT5q8L5BoTcehdO-62" value="" style="html=1;points=[];perimeter=orthogonalPerimeter;" parent="7baba1c4bc27f4b0-8" vertex="1">
          <mxGeometry x="50" y="907" width="10" height="40" as="geometry" />
        </mxCell>
        <mxCell id="PVZVwCT5q8L5BoTcehdO-63" value="&lt;font face=&quot;Verdana&quot; style=&quot;font-size: 12px&quot;&gt;User selects payment&lt;/font&gt;" style="edgeStyle=orthogonalEdgeStyle;html=1;align=left;spacingLeft=2;endArrow=block;rounded=0;entryX=1;entryY=0;" parent="7baba1c4bc27f4b0-8" target="PVZVwCT5q8L5BoTcehdO-62" edge="1">
          <mxGeometry relative="1" as="geometry">
            <mxPoint x="55" y="887" as="sourcePoint" />
            <Array as="points">
              <mxPoint x="80" y="887" />
            </Array>
          </mxGeometry>
        </mxCell>
        <mxCell id="PVZVwCT5q8L5BoTcehdO-66" value="" style="shape=image;html=1;verticalAlign=top;verticalLabelPosition=bottom;labelBackgroundColor=#ffffff;imageAspect=0;aspect=fixed;image=https://cdn2.iconfinder.com/data/icons/pinpoint-action/48/redirect-128.png" parent="7baba1c4bc27f4b0-8" vertex="1">
          <mxGeometry x="35" y="946" width="30" height="30" as="geometry" />
        </mxCell>
        <mxCell id="7baba1c4bc27f4b0-11" value="GetQuote()" style="html=1;verticalAlign=bottom;endArrow=block;entryX=0;entryY=0;labelBackgroundColor=none;fontFamily=Verdana;fontSize=12;edgeStyle=elbowEdgeStyle;elbow=vertical;" parent="1" target="7baba1c4bc27f4b0-10" edge="1">
          <mxGeometry relative="1" as="geometry">
            <mxPoint x="155" y="281" as="sourcePoint" />
          </mxGeometry>
        </mxCell>
        <mxCell id="7baba1c4bc27f4b0-14" value="GetLocalQuote" style="html=1;verticalAlign=bottom;endArrow=block;entryX=0;entryY=0;labelBackgroundColor=none;fontFamily=Verdana;fontSize=12;edgeStyle=elbowEdgeStyle;elbow=vertical;" parent="1" source="7baba1c4bc27f4b0-10" target="7baba1c4bc27f4b0-13" edge="1">
          <mxGeometry relative="1" as="geometry">
            <mxPoint x="370" y="301" as="sourcePoint" />
          </mxGeometry>
        </mxCell>
        <mxCell id="7baba1c4bc27f4b0-40" value="&lt;font style=&quot;font-size: 10px&quot;&gt;Web Application Interface for Insurance Aggregator&lt;/font&gt;" style="shape=note;whiteSpace=wrap;html=1;size=14;verticalAlign=top;align=left;spacingTop=-6;rounded=0;shadow=0;comic=0;labelBackgroundColor=none;strokeWidth=1;fontFamily=Verdana;fontSize=12;fillColor=#d5e8d4;strokeColor=#82b366;" parent="1" vertex="1">
          <mxGeometry x="100" width="100" height="65" as="geometry" />
        </mxCell>
        <mxCell id="7baba1c4bc27f4b0-41" value="&lt;font style=&quot;font-size: 10px&quot;&gt;Backend server&lt;br&gt;for Insurance Aggregator&lt;/font&gt;" style="shape=note;whiteSpace=wrap;html=1;size=14;verticalAlign=top;align=left;spacingTop=-6;rounded=0;shadow=0;comic=0;labelBackgroundColor=none;strokeWidth=1;fontFamily=Verdana;fontSize=12;fillColor=#d5e8d4;strokeColor=#82b366;" parent="1" vertex="1">
          <mxGeometry x="240" width="100" height="65" as="geometry" />
        </mxCell>
        <mxCell id="7baba1c4bc27f4b0-42" value="&lt;font style=&quot;font-size: 10px&quot;&gt;Database for Insurance Aggregator&lt;/font&gt;" style="shape=note;whiteSpace=wrap;html=1;size=14;verticalAlign=top;align=left;spacingTop=-6;rounded=0;shadow=0;comic=0;labelBackgroundColor=none;strokeWidth=1;fontFamily=Verdana;fontSize=12;fillColor=#d5e8d4;strokeColor=#82b366;" parent="1" vertex="1">
          <mxGeometry x="400" width="100" height="65" as="geometry" />
        </mxCell>
        <mxCell id="7baba1c4bc27f4b0-43" value="&lt;font style=&quot;font-size: 10px&quot;&gt;Kotak API&lt;/font&gt;" style="shape=note;whiteSpace=wrap;html=1;size=14;verticalAlign=top;align=left;spacingTop=-6;rounded=0;shadow=0;comic=0;labelBackgroundColor=none;strokeWidth=1;fontFamily=Verdana;fontSize=12;fillColor=#fff2cc;strokeColor=#d6b656;" parent="1" vertex="1">
          <mxGeometry x="540" width="100" height="65" as="geometry" />
        </mxCell>
        <mxCell id="7baba1c4bc27f4b0-44" value="&lt;font style=&quot;font-size: 10px&quot;&gt;Payment&lt;br&gt;Gateway URL&lt;/font&gt;" style="shape=note;whiteSpace=wrap;html=1;size=14;verticalAlign=top;align=left;spacingTop=-6;rounded=0;shadow=0;comic=0;labelBackgroundColor=none;strokeWidth=1;fontFamily=Verdana;fontSize=12;fillColor=#fff2cc;strokeColor=#d6b656;" parent="1" vertex="1">
          <mxGeometry x="680" width="100" height="65" as="geometry" />
        </mxCell>
        <mxCell id="PVZVwCT5q8L5BoTcehdO-6" value="" style="shape=image;html=1;verticalAlign=top;verticalLabelPosition=bottom;labelBackgroundColor=#ffffff;imageAspect=0;aspect=fixed;image=https://cdn4.iconfinder.com/data/icons/ionicons/512/icon-person-stalker-128.png" parent="1" vertex="1">
          <mxGeometry x="10" y="142" width="78" height="78" as="geometry" />
        </mxCell>
        <mxCell id="PVZVwCT5q8L5BoTcehdO-7" value="&lt;font face=&quot;Verdana&quot;&gt;Agents&lt;br&gt;Customers&lt;/font&gt;" style="text;html=1;align=center;verticalAlign=middle;resizable=0;points=[];autosize=1;" parent="1" vertex="1">
          <mxGeometry x="5" y="220" width="80" height="30" as="geometry" />
        </mxCell>
        <mxCell id="PVZVwCT5q8L5BoTcehdO-8" value="" style="html=1;verticalAlign=bottom;endArrow=block;entryX=-0.1;entryY=0.002;entryDx=0;entryDy=0;entryPerimeter=0;" parent="1" edge="1">
          <mxGeometry width="80" relative="1" as="geometry">
            <mxPoint x="88" y="179.95073684210524" as="sourcePoint" />
            <mxPoint x="144" y="179.88" as="targetPoint" />
          </mxGeometry>
        </mxCell>
        <mxCell id="PVZVwCT5q8L5BoTcehdO-39" value="&lt;font style=&quot;font-size: 12px&quot; face=&quot;Verdana&quot;&gt;QuoteDetails&lt;/font&gt;" style="html=1;verticalAlign=bottom;endArrow=open;dashed=1;endSize=8;" parent="1" edge="1">
          <mxGeometry relative="1" as="geometry">
            <mxPoint x="444" y="326" as="sourcePoint" />
            <mxPoint x="293.5" y="326" as="targetPoint" />
          </mxGeometry>
        </mxCell>
        <mxCell id="PVZVwCT5q8L5BoTcehdO-40" value="&lt;font style=&quot;font-size: 12px&quot; face=&quot;Verdana&quot;&gt;QuoteDetails&lt;/font&gt;" style="html=1;verticalAlign=bottom;endArrow=open;dashed=1;endSize=8;" parent="1" edge="1">
          <mxGeometry relative="1" as="geometry">
            <mxPoint x="285" y="346" as="sourcePoint" />
            <mxPoint x="154.5" y="346" as="targetPoint" />
          </mxGeometry>
        </mxCell>
        <mxCell id="PVZVwCT5q8L5BoTcehdO-43" value="GetQuote()" style="html=1;verticalAlign=bottom;endArrow=block;entryX=0;entryY=0;labelBackgroundColor=none;fontFamily=Verdana;fontSize=12;edgeStyle=elbowEdgeStyle;elbow=vertical;exitX=0.5;exitY=0.498;exitDx=0;exitDy=0;exitPerimeter=0;" parent="1" edge="1">
          <mxGeometry relative="1" as="geometry">
            <mxPoint x="155" y="399.12" as="sourcePoint" />
            <mxPoint x="294" y="399" as="targetPoint" />
          </mxGeometry>
        </mxCell>
        <mxCell id="PVZVwCT5q8L5BoTcehdO-44" value="GetQuote" style="html=1;verticalAlign=bottom;endArrow=block;entryX=0.5;entryY=0.584;labelBackgroundColor=none;fontFamily=Verdana;fontSize=12;edgeStyle=elbowEdgeStyle;elbow=vertical;entryDx=0;entryDy=0;entryPerimeter=0;" parent="1" edge="1">
          <mxGeometry x="1" y="210" relative="1" as="geometry">
            <mxPoint x="294" y="501" as="sourcePoint" />
            <mxPoint x="594" y="500.72" as="targetPoint" />
            <mxPoint as="offset" />
          </mxGeometry>
        </mxCell>
        <mxCell id="PVZVwCT5q8L5BoTcehdO-45" value="&lt;font style=&quot;font-size: 12px&quot; face=&quot;Verdana&quot;&gt;{QuoteDetails}&lt;/font&gt;" style="html=1;verticalAlign=bottom;endArrow=open;dashed=1;endSize=8;" parent="1" edge="1">
          <mxGeometry x="0.4349" relative="1" as="geometry">
            <mxPoint x="589.5" y="530" as="sourcePoint" />
            <mxPoint x="294" y="530" as="targetPoint" />
            <mxPoint as="offset" />
          </mxGeometry>
        </mxCell>
        <mxCell id="PVZVwCT5q8L5BoTcehdO-41" value="&lt;font face=&quot;Verdana&quot;&gt;If Applicable&lt;/font&gt;" style="shape=umlFrame;whiteSpace=wrap;html=1;width=90;height=40;" parent="1" vertex="1">
          <mxGeometry x="50" y="260" width="430" height="100" as="geometry" />
        </mxCell>
        <mxCell id="PVZVwCT5q8L5BoTcehdO-48" value="" style="html=1;points=[];perimeter=orthogonalPerimeter;" parent="1" vertex="1">
          <mxGeometry x="289" y="430" width="10" height="40" as="geometry" />
        </mxCell>
        <mxCell id="PVZVwCT5q8L5BoTcehdO-49" value="&lt;font face=&quot;Verdana&quot; style=&quot;font-size: 12px&quot;&gt;Validate()&lt;/font&gt;" style="edgeStyle=orthogonalEdgeStyle;html=1;align=left;spacingLeft=2;endArrow=block;rounded=0;entryX=1;entryY=0;" parent="1" source="PVZVwCT5q8L5BoTcehdO-42" target="PVZVwCT5q8L5BoTcehdO-48" edge="1">
          <mxGeometry relative="1" as="geometry">
            <mxPoint x="304" y="410" as="sourcePoint" />
            <Array as="points">
              <mxPoint x="329" y="410" />
              <mxPoint x="329" y="430" />
            </Array>
          </mxGeometry>
        </mxCell>
        <mxCell id="PVZVwCT5q8L5BoTcehdO-51" value="&lt;span style=&quot;font-family: &amp;#34;verdana&amp;#34; ; font-size: 12px&quot;&gt;{FinalPremiumDetails}&lt;/span&gt;" style="html=1;verticalAlign=bottom;endArrow=open;dashed=1;endSize=8;" parent="1" edge="1">
          <mxGeometry x="-0.1095" y="20" relative="1" as="geometry">
            <mxPoint x="291" y="930" as="sourcePoint" />
            <mxPoint x="154" y="930" as="targetPoint" />
            <mxPoint as="offset" />
          </mxGeometry>
        </mxCell>
        <mxCell id="PVZVwCT5q8L5BoTcehdO-52" value="" style="html=1;points=[];perimeter=orthogonalPerimeter;" parent="1" vertex="1">
          <mxGeometry x="586" y="831" width="10" height="59" as="geometry" />
        </mxCell>
        <mxCell id="PVZVwCT5q8L5BoTcehdO-54" value="SubmitProposal()" style="html=1;verticalAlign=bottom;endArrow=block;entryX=0.5;entryY=0.584;labelBackgroundColor=none;fontFamily=Verdana;fontSize=12;edgeStyle=elbowEdgeStyle;elbow=vertical;entryDx=0;entryDy=0;entryPerimeter=0;" parent="1" edge="1">
          <mxGeometry x="1" y="210" relative="1" as="geometry">
            <mxPoint x="295" y="832" as="sourcePoint" />
            <mxPoint x="595" y="831.72" as="targetPoint" />
            <mxPoint as="offset" />
          </mxGeometry>
        </mxCell>
        <mxCell id="PVZVwCT5q8L5BoTcehdO-55" value="&lt;font style=&quot;font-size: 12px&quot; face=&quot;Verdana&quot;&gt;{FinalPremiumDetails}&lt;/font&gt;" style="html=1;verticalAlign=bottom;endArrow=open;dashed=1;endSize=8;" parent="1" edge="1">
          <mxGeometry x="0.4349" relative="1" as="geometry">
            <mxPoint x="590.5" y="890" as="sourcePoint" />
            <mxPoint x="295" y="890" as="targetPoint" />
            <mxPoint as="offset" />
          </mxGeometry>
        </mxCell>
        <mxCell id="PVZVwCT5q8L5BoTcehdO-56" value="" style="html=1;points=[];perimeter=orthogonalPerimeter;" parent="1" vertex="1">
          <mxGeometry x="290" y="761" width="10" height="40" as="geometry" />
        </mxCell>
        <mxCell id="PVZVwCT5q8L5BoTcehdO-57" value="&lt;font face=&quot;Verdana&quot; style=&quot;font-size: 12px&quot;&gt;Validate()&lt;/font&gt;" style="edgeStyle=orthogonalEdgeStyle;html=1;align=left;spacingLeft=2;endArrow=block;rounded=0;entryX=1;entryY=0;" parent="1" target="PVZVwCT5q8L5BoTcehdO-56" edge="1">
          <mxGeometry relative="1" as="geometry">
            <mxPoint x="295" y="741" as="sourcePoint" />
            <Array as="points">
              <mxPoint x="330" y="741" />
              <mxPoint x="330" y="761" />
            </Array>
          </mxGeometry>
        </mxCell>
        <mxCell id="PVZVwCT5q8L5BoTcehdO-53" value="SubmitProposal()" style="html=1;verticalAlign=bottom;endArrow=block;entryX=0;entryY=0;labelBackgroundColor=none;fontFamily=Verdana;fontSize=12;edgeStyle=elbowEdgeStyle;elbow=vertical;exitX=0.5;exitY=0.498;exitDx=0;exitDy=0;exitPerimeter=0;" parent="1" edge="1">
          <mxGeometry relative="1" as="geometry">
            <mxPoint x="154" y="730.12" as="sourcePoint" />
            <mxPoint x="293" y="730" as="targetPoint" />
          </mxGeometry>
        </mxCell>
        <mxCell id="PVZVwCT5q8L5BoTcehdO-50" value="&lt;font face=&quot;Verdana&quot;&gt;If Valid&lt;/font&gt;" style="shape=umlFrame;whiteSpace=wrap;html=1;" parent="1" vertex="1">
          <mxGeometry x="210" y="480" width="410" height="70" as="geometry" />
        </mxCell>
        <mxCell id="PVZVwCT5q8L5BoTcehdO-64" value="&lt;font face=&quot;Verdana&quot; style=&quot;font-size: 12px&quot;&gt;PaymentGatewayRedirect()&lt;/font&gt;" style="html=1;verticalAlign=bottom;endArrow=block;" parent="1" target="7baba1c4bc27f4b0-5" edge="1">
          <mxGeometry x="-0.3235" width="80" relative="1" as="geometry">
            <mxPoint x="156" y="1040" as="sourcePoint" />
            <mxPoint x="436" y="1040" as="targetPoint" />
            <mxPoint as="offset" />
          </mxGeometry>
        </mxCell>
        <mxCell id="PVZVwCT5q8L5BoTcehdO-65" value="" style="html=1;points=[];perimeter=orthogonalPerimeter;" parent="1" vertex="1">
          <mxGeometry x="725" y="1040" width="10" height="40" as="geometry" />
        </mxCell>
        <mxCell id="PVZVwCT5q8L5BoTcehdO-67" value="&lt;font face=&quot;Verdana&quot; style=&quot;font-size: 12px&quot;&gt;PaymentGatewayCallback()&lt;/font&gt;" style="html=1;verticalAlign=bottom;endArrow=open;dashed=1;endSize=8;exitX=0.1;exitY=0.925;exitDx=0;exitDy=0;exitPerimeter=0;" parent="1" edge="1">
          <mxGeometry x="0.3183" relative="1" as="geometry">
            <mxPoint x="730" y="1080" as="sourcePoint" />
            <mxPoint x="153.5" y="1080" as="targetPoint" />
            <mxPoint as="offset" />
          </mxGeometry>
        </mxCell>
        <mxCell id="PVZVwCT5q8L5BoTcehdO-69" value="&lt;font face=&quot;Verdana&quot; style=&quot;font-size: 12px&quot;&gt;GetPolicyPDF()&lt;/font&gt;" style="html=1;verticalAlign=bottom;endArrow=block;" parent="1" edge="1">
          <mxGeometry x="-0.3235" width="80" relative="1" as="geometry">
            <mxPoint x="155" y="1199" as="sourcePoint" />
            <mxPoint x="590" y="1199" as="targetPoint" />
            <mxPoint as="offset" />
          </mxGeometry>
        </mxCell>
        <mxCell id="PVZVwCT5q8L5BoTcehdO-71" value="&lt;font face=&quot;Verdana&quot; style=&quot;font-size: 12px&quot;&gt;{PDFBinary}&lt;/font&gt;" style="html=1;verticalAlign=bottom;endArrow=open;dashed=1;endSize=8;" parent="1" edge="1">
          <mxGeometry x="0.3183" relative="1" as="geometry">
            <mxPoint x="590" y="1239" as="sourcePoint" />
            <mxPoint x="154.5" y="1239" as="targetPoint" />
            <mxPoint as="offset" />
          </mxGeometry>
        </mxCell>
        <mxCell id="PVZVwCT5q8L5BoTcehdO-72" value="" style="html=1;points=[];perimeter=orthogonalPerimeter;" parent="1" vertex="1">
          <mxGeometry x="151" y="1140" width="10" height="40" as="geometry" />
        </mxCell>
        <mxCell id="PVZVwCT5q8L5BoTcehdO-73" value="&lt;font style=&quot;font-size: 12px&quot; face=&quot;Verdana&quot;&gt;User requests for PDF&lt;/font&gt;" style="edgeStyle=orthogonalEdgeStyle;html=1;align=left;spacingLeft=2;endArrow=block;rounded=0;entryX=1;entryY=0;" parent="1" target="PVZVwCT5q8L5BoTcehdO-72" edge="1">
          <mxGeometry relative="1" as="geometry">
            <mxPoint x="156" y="1120" as="sourcePoint" />
            <Array as="points">
              <mxPoint x="181" y="1120" />
            </Array>
          </mxGeometry>
        </mxCell>
        <mxCell id="PVZVwCT5q8L5BoTcehdO-74" value="&lt;font face=&quot;Verdana&quot;&gt;&lt;b&gt;LEGENDS&lt;/b&gt;&lt;/font&gt;" style="text;html=1;align=center;verticalAlign=middle;resizable=0;points=[];autosize=1;" parent="1" vertex="1">
          <mxGeometry x="400" y="1440" width="80" height="20" as="geometry" />
        </mxCell>
        <mxCell id="PVZVwCT5q8L5BoTcehdO-75" value="" style="whiteSpace=wrap;html=1;aspect=fixed;fillColor=#d5e8d4;strokeColor=#82b366;" parent="1" vertex="1">
          <mxGeometry x="520" y="1440" width="40" height="40" as="geometry" />
        </mxCell>
        <mxCell id="PVZVwCT5q8L5BoTcehdO-76" value="" style="whiteSpace=wrap;html=1;aspect=fixed;fillColor=#fff2cc;strokeColor=#d6b656;" parent="1" vertex="1">
          <mxGeometry x="520" y="1520" width="40" height="40" as="geometry" />
        </mxCell>
        <mxCell id="PVZVwCT5q8L5BoTcehdO-77" value="&lt;font face=&quot;Verdana&quot;&gt;Insurance&lt;br&gt;Aggregator&lt;/font&gt;" style="text;html=1;align=center;verticalAlign=middle;resizable=0;points=[];autosize=1;" parent="1" vertex="1">
          <mxGeometry x="560" y="1445" width="80" height="30" as="geometry" />
        </mxCell>
        <mxCell id="PVZVwCT5q8L5BoTcehdO-78" value="&lt;font face=&quot;Verdana&quot;&gt;Integrations&lt;/font&gt;" style="text;html=1;align=center;verticalAlign=middle;resizable=0;points=[];autosize=1;" parent="1" vertex="1">
          <mxGeometry x="560" y="1530" width="90" height="20" as="geometry" />
        </mxCell>
        <mxCell id="PVZVwCT5q8L5BoTcehdO-58" value="&lt;font face=&quot;Verdana&quot;&gt;If Valid&lt;/font&gt;" style="shape=umlFrame;whiteSpace=wrap;html=1;" parent="1" vertex="1">
          <mxGeometry x="211" y="811" width="410" height="99" as="geometry" />
        </mxCell>
      </root>
    </mxGraphModel>
  </diagram>
</mxfile>
